<svg xmlns="http://www.w3.org/2000/svg" xml:space="preserve" id="Layer_1" x="0" y="0" baseProfile="tiny" viewBox="0 0 50.3 50.3"><path fill="none" stroke="#1d1d1a" stroke-miterlimit="10" stroke-width=".353" d="M45.6 40.7c-2.1-.5-10.9-3.1-14.7-3.3H19.3c-3.8.2-12.5 2.8-14.7 3.3s-1 1.1-.6 1.4c.9.7 12 8.1 21.2 8.1 9.1 0 20.3-7.4 21.2-8.1.4-.3 1.4-.8-.8-1.4zM5 40.7h40.3M4.6 42.5h41.2"/><path fill="none" stroke="#1d1d1a" stroke-linecap="round" stroke-linejoin="round" stroke-miterlimit="10" stroke-width=".353" d="M25.2 36.8V4.6m-5.8 32.8c1.8-.4 3.8-.6 5.8-.6s4 .2 5.8.6"/><path fill="none" stroke="#1d1d1a" stroke-miterlimit="10" stroke-width=".353" d="M20.1.2c0 2.4 2.3 4.4 5 4.4 2.8 0 5-2 5-4.4z"/></svg>