<svg xmlns="http://www.w3.org/2000/svg" xml:space="preserve" id="Layer_1" x="0" y="0" viewBox="0 0 50.8 50.8"><g id="g896" transform="translate(-2.877 -3.345)scale(.07018)"><path id="path850" d="m516.008 151.825-356.244 81.37 3.97 52.594 352.274-78.394z" style="fill:none;fill-rule:evenodd;stroke:#000;stroke-width:6.75;stroke-linecap:butt;stroke-linejoin:miter;stroke-miterlimit:4;stroke-dasharray:none;stroke-opacity:1"/><path id="path852" d="M516.008 151.825 657.91 267.927v52.593L516.008 207.395" style="fill:none;fill-rule:evenodd;stroke:#000;stroke-width:6.75;stroke-linecap:butt;stroke-linejoin:miter;stroke-miterlimit:4;stroke-dasharray:none;stroke-opacity:1"/><path id="path854" d="m657.91 320.52-180.603 30.762" style="fill:none;fill-rule:evenodd;stroke:#000;stroke-width:6.75;stroke-linecap:butt;stroke-linejoin:miter;stroke-miterlimit:4;stroke-dasharray:none;stroke-opacity:1"/><path id="path856" d="M279.835 351.282 163.733 285.79" style="fill:none;fill-rule:evenodd;stroke:#000;stroke-width:6.75;stroke-linecap:butt;stroke-linejoin:miter;stroke-miterlimit:4;stroke-dasharray:none;stroke-opacity:1"/><path id="path858" d="m439.103 368.648 37.708-11.908.992-33.243-159.268-58.05-39.692 14.884 1.984 217.815 26.297 9.427 36.22-9.923-28.778-10.42-33.243 11.412" style="fill:none;fill-rule:evenodd;stroke:#000;stroke-width:6.75;stroke-linecap:butt;stroke-linejoin:miter;stroke-miterlimit:4;stroke-dasharray:none;stroke-opacity:1"/><path id="path860" d="m314.566 487.23 3.97-221.784" style="fill:none;fill-rule:evenodd;stroke:#000;stroke-width:6.75;stroke-linecap:butt;stroke-linejoin:miter;stroke-miterlimit:4;stroke-dasharray:none;stroke-opacity:1"/><path id="path862" d="m476.81 356.74-127.016-42.67-6.45 183.58" style="fill:none;fill-rule:evenodd;stroke:#000;stroke-width:6.75;stroke-linecap:butt;stroke-linejoin:miter;stroke-miterlimit:4;stroke-dasharray:none;stroke-opacity:1"/><path id="path864" d="m371.625 350.29-22.328-7.939" style="fill:none;fill-rule:evenodd;stroke:#000;stroke-width:6.75;stroke-linecap:butt;stroke-linejoin:miter;stroke-miterlimit:4;stroke-dasharray:none;stroke-opacity:1"/><path id="path866" d="M440.715 309.915s.358-12.548-8.228-14.519c-22.298-5.118-31.217.254-31.217.254" style="fill:none;fill-rule:evenodd;stroke:#000;stroke-width:6.75;stroke-linecap:butt;stroke-linejoin:miter;stroke-miterlimit:4;stroke-dasharray:none;stroke-opacity:1"/><path id="path868" d="M348.305 357.732s57.419-19.895 74.424-3.473c56.598 54.657 157.283 152.322 157.283 152.322" style="fill:none;fill-rule:evenodd;stroke:#000;stroke-width:6.75;stroke-linecap:butt;stroke-linejoin:miter;stroke-miterlimit:4;stroke-dasharray:none;stroke-opacity:1"/><path id="path870" d="M279.339 420.249s-28.532 56.167-4.218 84.347c63.837 73.983 135.7 155.795 135.7 155.795" style="fill:none;fill-rule:evenodd;stroke:#000;stroke-width:6.75;stroke-linecap:butt;stroke-linejoin:miter;stroke-miterlimit:4;stroke-dasharray:none;stroke-opacity:1"/><path id="path872" d="M345.08 450.39s8.152 3.146 7.318 18.234c-.437 7.921-8.667 19.38-8.667 19.38" style="fill:none;fill-rule:evenodd;stroke:#000;stroke-width:6.75;stroke-linecap:butt;stroke-linejoin:miter;stroke-miterlimit:4;stroke-dasharray:none;stroke-opacity:1"/><path id="path874" d="M580.012 506.58s-49.787-35.473-120.764 23.187c-77.798 64.297-48.427 130.623-48.427 130.623s38.25 57.955 117.192 3.748c29.817-20.474 36.796-29.18 48.7-47.51 50.484-77.731 3.3-110.047 3.3-110.047z" style="fill:none;fill-rule:evenodd;stroke:#000;stroke-width:6.75;stroke-linecap:butt;stroke-linejoin:miter;stroke-miterlimit:4;stroke-dasharray:none;stroke-opacity:1"/><path id="path876" d="M459.95 532.573c36.063-32.328 97.087-47.736 124.548-16.138 30.335 34.907 1.277 93.816-32.98 127.004-43.443 42.088-110.224 53.539-133.318 19.296-24.06-35.676-1.632-91.271 41.75-130.162z" style="fill:none;fill-rule:evenodd;stroke:#000;stroke-width:6.75;stroke-linecap:butt;stroke-linejoin:miter;stroke-miterlimit:4;stroke-dasharray:none;stroke-opacity:1"/><path id="path878" d="M468.877 544.361c26.187-23.475 70.5-34.664 90.44-11.719 22.028 25.348.927 68.124-23.948 92.223-31.547 30.563-80.04 38.878-96.809 14.012-17.471-25.905-1.185-66.276 30.317-94.516z" style="fill:none;fill-rule:evenodd;stroke:#000;stroke-width:6.75;stroke-linecap:butt;stroke-linejoin:miter;stroke-miterlimit:4;stroke-dasharray:none;stroke-opacity:1"/></g></svg>