<svg xmlns="http://www.w3.org/2000/svg" width="11.444in" height="11.444in" viewBox="0 0 824 824"><path id="Unnamed" fill="none" stroke="#000" d="M187.14 83.87C161.36 87.74 143 90.5 143 90.5l-.5 639s18.14 2.67 43.69 6.42C247.06 744.87 350 760 350 760l360-89V148.5l-360.5-89S247.79 74.77 187.14 83.87zm29.95 583.95 2-515.64-31.95-68.14-.97 651.9zM349.53 59.5s.03 29.66.07 76.78c.15 181.86.52 623.72.52 623.72m-.53-623.71L219 152m157.67-9.33L661.33 198l.67 424.67-286 56zm.08.58S349.25 59.5 349.5 59.5M661 198l49-49.25m-47.82 473.8L710 670.97M390.5 234.5 589 259l1 301-203 27-11-.09m-87.5-5.41 61 4.5m-60-347 60-4m26.88-.25 14.12-.13M570 207.33l92-8.66v424l-93.33-10V564m.42-307.64.91-49.03M288 582l1.5-343.5m85.83-68.5 195.34 37.33m-222-40.66-102-18M350 684l-132-14m352.67-58L376 652.67M350 658l-92.67 16"/><g stroke-width="1.28"><path d="M185.505 85.26c-13.81 1.63-27.682 3.776-41.324 6.036-.249 212.355-.861 424.71-.73 637.065 13.631 2.652 27.641 5.022 41.577 6.087.678-163.433.74-327.15 1.09-490.695-.097-52.799.473-105.87-.156-158.498-.152-.012-.305.008-.457.012zm3.06 4.56c-.923 212.873-1.768 425.752-1.037 638.625.984 2.21 3.194-6.37 4.447-7.69 8.013-17.968 16.952-35.769 24.192-53.93.718-171.368 1.476-342.736 2.168-514.096-9.977-20.857-19.528-42.598-29.77-62.911zm158.842-28.883C295.506 68.739 243.45 75.678 191.76 84.81c-2.975-.141-2.854 1.96-1.214 3.942 9.47 20.658 19.09 41.32 28.862 61.79 33.48-2.73 66.784-7.693 100.177-11.436 9.546-1.243 19.261-2.159 28.7-3.607-.13-24.844 1.019-49.832-.293-74.595l-.104-.025zm4.103.613c8.004 26.736 16.559 53.424 25.898 79.703 93.015 19.245 186.353 36.956 279.63 54.912 4.896 1.585 7.6-4.886 11.23-6.988 13.243-13.054 27.252-25.653 38.776-40.253-17.507-5.017-36.105-8.983-54.025-13.608-100.44-24.658-200.752-49.85-301.335-73.912zm334.088 113.23c-7.685 7.722-15.472 15.377-23.092 23.14.029 141.136-.058 282.3.043 423.42 15.391 15.424 30.5 31.826 46.114 46.62.422-172.035.167-344.07.24-516.105-7.877 7.026-15.529 15.395-23.305 22.926z"/><path d="M350.865 67.769c-.056 212.88-1.067 425.76.373 638.64.365 17.304-.038 34.919.934 52.045 118.328-29.147 236.7-58.269 354.923-87.735-14.126-16.362-29.965-31.547-44.967-47.17-95.37 18.517-190.628 37.647-286.11 55.59-.632-178.665-.215-357.33-.334-535.995-8.373-25.108-15.964-50.346-24.823-75.375zM217.028 671.46c-10.087 19.584-18.693 40.288-27.662 60.537-1.553 2.144-1.264 3.865 1.732 3.47 52.644 8.088 105.525 15.955 158.145 23.366.492-24.705.676-49.563-.804-74.164-43.796-4.419-87.518-9.872-131.408-13.21z"/></g></svg>