<svg xmlns="http://www.w3.org/2000/svg" width="276" height="374" viewBox="0 0 276 374"><g fill="#fff" fill-rule="evenodd"><path fill-rule="nonzero" d="M136.5 273.5h4v100h-4z"/><path fill-rule="nonzero" d="M138 275.5C62.06 275.5.5 213.94.5 138S62.06.5 138 .5 275.5 62.06 275.5 138 213.94 275.5 138 275.5m0-19c65.446 0 118.5-53.054 118.5-118.5S203.446 19.5 138 19.5 19.5 72.554 19.5 138 72.554 256.5 138 256.5"/><path d="m94.171 249.181 3.869-7.666q12.914 6.63 39.07 6.629 26.154 0 40.677-6.63l4.64 7.667q-16.308 7.666-45.318 7.666t-42.938-7.666"/></g></svg>